<mxfile host="app.diagrams.net" modified="2021-10-21T08:19:26.192Z" agent="5.0 (Windows NT 10.0; Win64; x64) AppleWebKit/537.36 (KHTML, like Gecko) Chrome/94.0.4606.81 Safari/537.36" etag="QiZCploa5EJAe0n_RvSV" version="15.5.7" type="github">
  <diagram id="C5RBs43oDa-KdzZeNtuy" name="Page-1">
    <mxGraphModel dx="2062" dy="1154" grid="1" gridSize="10" guides="1" tooltips="1" connect="1" arrows="1" fold="1" page="1" pageScale="1" pageWidth="583" pageHeight="827" math="0" shadow="0">
      <root>
        <mxCell id="WIyWlLk6GJQsqaUBKTNV-0" />
        <mxCell id="WIyWlLk6GJQsqaUBKTNV-1" parent="WIyWlLk6GJQsqaUBKTNV-0" />
        <mxCell id="NEwZFaUn7lqMhTiSvTzW-9" style="edgeStyle=none;rounded=0;orthogonalLoop=1;jettySize=auto;html=1;exitX=0;exitY=0;exitDx=50;exitDy=0;exitPerimeter=0;entryX=0;entryY=0;entryDx=70;entryDy=80;entryPerimeter=0;" edge="1" parent="WIyWlLk6GJQsqaUBKTNV-1" source="NEwZFaUn7lqMhTiSvTzW-2" target="NEwZFaUn7lqMhTiSvTzW-7">
          <mxGeometry relative="1" as="geometry" />
        </mxCell>
        <mxCell id="NEwZFaUn7lqMhTiSvTzW-12" style="edgeStyle=none;rounded=0;orthogonalLoop=1;jettySize=auto;html=1;exitX=0;exitY=0;exitDx=50;exitDy=0;exitPerimeter=0;entryX=0;entryY=0;entryDx=70;entryDy=80;entryPerimeter=0;" edge="1" parent="WIyWlLk6GJQsqaUBKTNV-1" source="NEwZFaUn7lqMhTiSvTzW-2" target="NEwZFaUn7lqMhTiSvTzW-3">
          <mxGeometry relative="1" as="geometry" />
        </mxCell>
        <mxCell id="NEwZFaUn7lqMhTiSvTzW-2" value="生产能效" style="shape=cube;whiteSpace=wrap;html=1;boundedLbl=1;backgroundOutline=1;darkOpacity=0.05;darkOpacity2=0.1;fillColor=#dae8fc;strokeColor=#6c8ebf;direction=west;" vertex="1" parent="WIyWlLk6GJQsqaUBKTNV-1">
          <mxGeometry x="428" y="160" width="120" height="80" as="geometry" />
        </mxCell>
        <mxCell id="NEwZFaUn7lqMhTiSvTzW-25" style="edgeStyle=none;rounded=0;orthogonalLoop=1;jettySize=auto;html=1;exitX=0;exitY=0;exitDx=50;exitDy=0;exitPerimeter=0;entryX=0;entryY=0;entryDx=70;entryDy=80;entryPerimeter=0;" edge="1" parent="WIyWlLk6GJQsqaUBKTNV-1" source="NEwZFaUn7lqMhTiSvTzW-3" target="NEwZFaUn7lqMhTiSvTzW-16">
          <mxGeometry relative="1" as="geometry" />
        </mxCell>
        <mxCell id="NEwZFaUn7lqMhTiSvTzW-26" style="edgeStyle=none;rounded=0;orthogonalLoop=1;jettySize=auto;html=1;exitX=0;exitY=0;exitDx=50;exitDy=0;exitPerimeter=0;entryX=0.492;entryY=0.975;entryDx=0;entryDy=0;entryPerimeter=0;" edge="1" parent="WIyWlLk6GJQsqaUBKTNV-1" source="NEwZFaUn7lqMhTiSvTzW-3" target="NEwZFaUn7lqMhTiSvTzW-17">
          <mxGeometry relative="1" as="geometry" />
        </mxCell>
        <mxCell id="NEwZFaUn7lqMhTiSvTzW-27" style="edgeStyle=none;rounded=0;orthogonalLoop=1;jettySize=auto;html=1;exitX=0;exitY=0;exitDx=50;exitDy=0;exitPerimeter=0;entryX=0;entryY=0;entryDx=70;entryDy=80;entryPerimeter=0;" edge="1" parent="WIyWlLk6GJQsqaUBKTNV-1" source="NEwZFaUn7lqMhTiSvTzW-3" target="NEwZFaUn7lqMhTiSvTzW-19">
          <mxGeometry relative="1" as="geometry" />
        </mxCell>
        <mxCell id="NEwZFaUn7lqMhTiSvTzW-3" value="生产线统计" style="shape=cube;whiteSpace=wrap;html=1;boundedLbl=1;backgroundOutline=1;darkOpacity=0.05;darkOpacity2=0.1;fillColor=#dae8fc;strokeColor=#6c8ebf;direction=west;" vertex="1" parent="WIyWlLk6GJQsqaUBKTNV-1">
          <mxGeometry x="586" y="290" width="120" height="80" as="geometry" />
        </mxCell>
        <mxCell id="NEwZFaUn7lqMhTiSvTzW-20" style="edgeStyle=none;rounded=0;orthogonalLoop=1;jettySize=auto;html=1;exitX=0;exitY=0;exitDx=50;exitDy=0;exitPerimeter=0;entryX=0;entryY=0;entryDx=70;entryDy=80;entryPerimeter=0;" edge="1" parent="WIyWlLk6GJQsqaUBKTNV-1" source="NEwZFaUn7lqMhTiSvTzW-7" target="NEwZFaUn7lqMhTiSvTzW-14">
          <mxGeometry relative="1" as="geometry" />
        </mxCell>
        <mxCell id="NEwZFaUn7lqMhTiSvTzW-21" style="edgeStyle=none;rounded=0;orthogonalLoop=1;jettySize=auto;html=1;exitX=0;exitY=0;exitDx=50;exitDy=0;exitPerimeter=0;" edge="1" parent="WIyWlLk6GJQsqaUBKTNV-1" source="NEwZFaUn7lqMhTiSvTzW-7" target="NEwZFaUn7lqMhTiSvTzW-15">
          <mxGeometry relative="1" as="geometry" />
        </mxCell>
        <mxCell id="NEwZFaUn7lqMhTiSvTzW-7" value="生产线数据清洗配置" style="shape=cube;whiteSpace=wrap;html=1;boundedLbl=1;backgroundOutline=1;darkOpacity=0.05;darkOpacity2=0.1;fillColor=#dae8fc;strokeColor=#6c8ebf;direction=west;" vertex="1" parent="WIyWlLk6GJQsqaUBKTNV-1">
          <mxGeometry x="260" y="290" width="120" height="80" as="geometry" />
        </mxCell>
        <mxCell id="NEwZFaUn7lqMhTiSvTzW-14" value="产能产值清洗" style="shape=cube;whiteSpace=wrap;html=1;boundedLbl=1;backgroundOutline=1;darkOpacity=0.05;darkOpacity2=0.1;fillColor=#dae8fc;strokeColor=#6c8ebf;direction=west;" vertex="1" parent="WIyWlLk6GJQsqaUBKTNV-1">
          <mxGeometry x="44" y="470" width="120" height="80" as="geometry" />
        </mxCell>
        <mxCell id="NEwZFaUn7lqMhTiSvTzW-15" value="用电量清洗" style="shape=cube;whiteSpace=wrap;html=1;boundedLbl=1;backgroundOutline=1;darkOpacity=0.05;darkOpacity2=0.1;fillColor=#dae8fc;strokeColor=#6c8ebf;direction=west;" vertex="1" parent="WIyWlLk6GJQsqaUBKTNV-1">
          <mxGeometry x="194" y="470" width="120" height="80" as="geometry" />
        </mxCell>
        <mxCell id="NEwZFaUn7lqMhTiSvTzW-16" value="生产线产能统计" style="shape=cube;whiteSpace=wrap;html=1;boundedLbl=1;backgroundOutline=1;darkOpacity=0.05;darkOpacity2=0.1;fillColor=#dae8fc;strokeColor=#6c8ebf;direction=west;" vertex="1" parent="WIyWlLk6GJQsqaUBKTNV-1">
          <mxGeometry x="344" y="470" width="120" height="80" as="geometry" />
        </mxCell>
        <mxCell id="NEwZFaUn7lqMhTiSvTzW-17" value="生产线用电量统计" style="shape=cube;whiteSpace=wrap;html=1;boundedLbl=1;backgroundOutline=1;darkOpacity=0.05;darkOpacity2=0.1;fillColor=#dae8fc;strokeColor=#6c8ebf;direction=west;" vertex="1" parent="WIyWlLk6GJQsqaUBKTNV-1">
          <mxGeometry x="504" y="470" width="120" height="80" as="geometry" />
        </mxCell>
        <mxCell id="NEwZFaUn7lqMhTiSvTzW-19" value="生产线能耗统计" style="shape=cube;whiteSpace=wrap;html=1;boundedLbl=1;backgroundOutline=1;darkOpacity=0.05;darkOpacity2=0.1;fillColor=#dae8fc;strokeColor=#6c8ebf;direction=west;" vertex="1" parent="WIyWlLk6GJQsqaUBKTNV-1">
          <mxGeometry x="800" y="470" width="120" height="80" as="geometry" />
        </mxCell>
        <mxCell id="NEwZFaUn7lqMhTiSvTzW-28" value="生产线产值统计" style="shape=cube;whiteSpace=wrap;html=1;boundedLbl=1;backgroundOutline=1;darkOpacity=0.05;darkOpacity2=0.1;fillColor=#dae8fc;strokeColor=#6c8ebf;direction=west;" vertex="1" parent="WIyWlLk6GJQsqaUBKTNV-1">
          <mxGeometry x="650" y="470" width="120" height="80" as="geometry" />
        </mxCell>
      </root>
    </mxGraphModel>
  </diagram>
</mxfile>
